<?xml version="1.0" encoding="UTF-8" standalone="no"?>
<svg xmlns:rdf="http://www.w3.org/1999/02/22-rdf-syntax-ns#" xmlns="http://www.w3.org/2000/svg" height="340.13mm" width="248.5mm" version="1.1" xmlns:cc="http://creativecommons.org/ns#" xmlns:xlink="http://www.w3.org/1999/xlink" viewBox="0 0 880.49851 1205.1859" xmlns:dc="http://purl.org/dc/elements/1.1/">
<defs>
<radialGradient id="a" gradientUnits="userSpaceOnUse" cy="7543.9" cx="-4681.9" gradientTransform="matrix(1 0 0 1.3688 1059.8 -2847.3)" r="440.25">
<stop stop-color="#fff" offset="0"/>
<stop stop-color="#fff" stop-opacity="0" offset="1"/>
</radialGradient>
</defs>
<g transform="translate(1723.6 706.75)">
<g transform="translate(2178.8 -7825.7)">
<path d="m-3021.9 7805.5c-3.0422 684.46-833.34 693.37-880.5 15.02 0-332.74 201.1-701.6 441.75-701.6s438.74 353.85 438.74 686.59z" fill-rule="evenodd" fill="#eda7ff"/>
<path d="m-3460.6 7118.9c-101.65 0-196.24 65.807-271.6 166.9 8.219 3.0216 16.478 5.9431 24.813 8.6476 12.203 4.2259 24.625 7.766 37.012 11.396 5.8257 1.3892 11.553 3.155 17.374 4.58 26.077 6.6279 52.481 11.987 79.1 15.904 29.008 4.2035 58.289 6.534 87.597 6.9642 7.4391-0.103 14.887 0.081 22.335-0.058 9.1912-0.5064 18.41-0.4569 27.601-1.1336 30.782-1.4833 61.471-4.831 91.876-9.8456 26.234-4.1453 52.176-9.9576 77.858-16.693 9.0747-2.4737 18.073-5.2161 27.099-7.8556 15.716-5.0729 31.392-10.312 46.723-16.474 0.9142-0.357 1.8254-0.7231 2.7385-1.084-74.755-98.069-168.84-161.25-270.53-161.25zm280.53 174.74c-47.031 19.124-96.225 32.734-146.11 41.997-42.716 7.7259-86.006 12.328-129.4 13.543-7.5466 0.4347-15.098 0.161-22.64 0.2282-29.967 0.3451-59.897-2.0706-89.608-5.8439-17.208-2.2989-34.341-5.1892-51.343-8.7071-20.811-4.2752-41.488-9.2357-61.883-15.196-19.987-5.8257-39.826-12.185-59.297-19.566-0.5819-0.2192-1.166-0.4299-1.7498-0.6421-12.191 17.246-23.835 35.429-34.887 54.397 0.7219 0.2936 1.4432 0.5883 2.1672 0.8773 7.1388 2.7874 14.358 5.3593 21.541 8.0391 8.3308 2.7426 16.64 5.5615 25.033 8.1203 70.263 21.156 143.42 32.024 216.68 34.695 4.916 0.4257 9.8499 0.1386 14.779 0.4299 8.7117 0.6498 17.459 0.1616 26.188 0.3095 6.6234-0.1031 13.265 0.2865 19.884-0.2871 4.3514-0.3361 8.7211 0.01 13.09-0.2955 5.3014-0.4257 10.62-0.3588 15.94-0.6904 6.9057-0.4078 13.825-0.605 20.726-1.2324 7.3315-0.5915 14.681-0.9675 21.995-1.7652 10.007-0.95 20.027-1.8194 29.993-3.1593 55.739-6.7355 111.02-17.818 164.72-34.246 8.7745-2.532 17.37-5.615 26.05-8.4606 5.0978-1.7084 10.16-3.5191 15.202-5.3868-11.684-20.013-24.062-39.121-37.075-57.157zm45.221 71.468c-7.1536 2.6435-14.372 5.1094-21.555 7.6659-76.398 25.665-156.2 40.596-236.49 46.726-17.894 1.3713-35.824 2.2188-53.758 2.6804-6.6323 0.5243-13.279 0.1924-19.911 0.2731-9.6842-0.063-19.363 0.1165-29.034-0.067-7.085-0.3989-14.175-0.3941-21.251-0.7661-11.163-0.242-22.295-1.2549-33.431-1.9361-32.848-2.5678-65.607-6.5652-97.984-12.714-27.278-5.1446-54.331-11.53-80.937-19.449-10.719-3.0877-21.255-6.7624-31.836-10.285-4.7099-1.6939-9.3842-3.4733-14.09-5.1717-3.3313-1.3047-6.6459-2.646-9.964-3.9772-3.5952 6.4704-7.1221 13.025-10.579 19.66 0.1909 0.2374 0.3799 0.476 0.5651 0.7149 2.514 3.2086 4.1319 7.018 5.2746 10.908 0.7932 2.3796 0.6098 4.8802 0.6456 7.3494 0.3272 6.7668-2.6395 13.242-6.6772 18.508-5.6599 6.4422-14.195 10.67-22.858 10.261-8.9766 20.098-17.331 40.754-25.011 61.847 0.5708 0.2518 1.1392 0.5083 1.7022 0.7765 8.1426 3.473 16.388 6.713 24.674 9.8365 7.4032 2.6305 14.699 5.5885 22.259 7.7485 4.9742 1.9449 10.083 3.4865 15.218 4.9519 12.055 3.9615 24.307 7.2956 36.595 10.464 16.155 4.311 32.526 7.7523 48.891 11.176 10.092 1.9404 20.179 3.9082 30.334 5.4946 43.169 7.2866 86.835 11.333 130.55 13.3 10.303 0.5064 20.619 0.7218 30.939 0.8473 8.2501 0.5467 16.527 0.2957 24.799 0.3361 6.6503-0.049 13.31 0.188 19.96-0.2108 5.6241-0.3361 11.27-0.098 16.899-0.5959 11.88-0.085 23.733-1.0492 35.604-1.56 24.885-1.4834 49.734-3.621 74.485-6.6324 52.1-6.1394 103.83-15.572 154.64-28.644 16.594-4.0422 32.938-9.0124 49.304-13.875 16.775-5.2557 33.464-10.832 49.926-17.014-7.087-19.814-14.784-39.225-23.058-58.129-0.9793 0.9182-2.0253 1.7648-3.1349 2.5235-5.4224 4.1094-12.409 5.9021-19.149 5.3419-6.6951-0.1344-12.969-3.3523-17.903-7.7037-5.8123-5.4582-9.3527-13.377-9.1286-21.389-0.1793-7.3808 2.8547-14.609 7.7842-20.022 4.6885-4.8111 10.965-7.9453 17.59-8.9395-3.5554-6.8591-7.1893-13.63-10.9-20.308zm-83.326 49.251c0.7844 0.01 1.5665 0.063 2.3345 0.2072 4.9967 0.8963 10.043 2.4737 14.049 5.7137 7.4166 5.4359 11.929 14.542 11.764 23.738 0.2196 2.6753-0.4434 5.2835-1.1245 7.8423-2.0928 7.215-7.0178 13.677-13.713 17.186-2.0301 1.0487-4.0159 2.2582-6.2879 2.7063-3.6568 0.8739-7.4744 1.6808-11.221 0.9369-9.2271-0.9769-17.97-6.6232-22.358-14.846-3.6299-6.2156-4.378-13.861-3.0291-20.829 0.9276-2.8546 1.9043-5.7229 3.41-8.3311 1.2055-2.272 3.0612-4.1001 4.8448-5.9195 1.2727-1.2727 2.5092-2.64 4.1494-3.478 2.514-1.4609 5.086-2.9802 7.9362-3.7062 1.7522-0.4123 3.5402-0.7663 5.3551-0.9859 1.2688-0.1092 2.5831-0.243 3.8904-0.2338zm-513.63 0.032c7.884 0.028 15.621 3.6907 21.028 9.3842 3.8092 4.0153 6.3233 9.2492 7.3809 14.658 0.2376 4.1273 0.7123 8.4204-0.4887 12.458-2.7919 11.562-13.386 20.754-25.243 21.816-1.331 0.094-2.6171 0.3897-3.9436 0.215-3.1369-0.4078-6.3771-0.6049-9.3079-1.8731-4.5351-1.7701-8.7027-4.585-11.943-8.2148-6.4128-7.4973-8.895-18.374-5.7088-27.784 1.9628-7.1746 7.1337-13.26 13.542-16.925 3.4955-1.8867 7.3675-3.0249 11.302-3.5179 1.1259-0.149 2.2557-0.2197 3.382-0.2157zm401.18 21.057c3.0185 0.037 6.0131 0.8153 8.8968 1.7127 10.926 3.5716 19.055 14.278 19.592 25.768 0.6812 6.3232-1.3981 12.655-4.7054 17.974-4.3917 6.5249-11.441 11.414-19.279 12.579-3.0428 0.3361-6.1305 0.9948-9.1643 0.2689-9.2405-1.3489-17.836-7.2779-21.95-15.716-2.7112-5.0146-3.4821-10.885-3.1012-16.505 0.9276-6.6324 3.8904-13.081 8.7974-17.706 4.7278-4.7412 11.216-7.6453 17.889-8.1427 1.0083-0.1759 2.0174-0.2461 3.0236-0.2339zm-307.16 0.091c7.7002-0.074 15.294 3.3986 20.724 8.7959 4.6382 4.9609 7.7793 11.499 8.0706 18.338 0.9053 8.4384-2.5451 17.096-8.6307 22.931-3.4865 3.7957-8.3131 6.0634-13.184 7.5154-3.8808 0.6005-7.8829 1.5502-11.782 0.5195-4.6068-0.5601-8.9087-2.6083-12.583-5.3643-2.039-1.5147-4.1544-3.0428-5.6332-5.1311-3.361-4.441-5.8253-9.6619-6.3138-15.268-0.8783-5.5793 0.5687-11.248 2.9528-16.262 2.3034-4.199 5.3059-8.1832 9.4332-10.729 4.1766-3.1862 9.3531-4.8086 14.556-5.2074 0.7965-0.085 1.5939-0.1304 2.3904-0.1379zm100.96 8.0313c1.1739 0 2.3506 0.1464 3.5129 0.348 7.3181 1.0711 14.219 4.9698 18.822 10.778 1.8732 2.5634 3.554 5.3415 4.6564 8.3395 1.7074 5.4045 2.3925 11.369 0.7927 16.89-1.9001 7.9186-7.3491 14.77-14.434 18.714-5.0326 2.5723-10.76 3.9122-16.411 3.473-5.288-0.7797-10.665-2.3793-14.891-5.7851-6.1126-4.5216-10.352-11.539-11.468-19.059-0.3585-3.7151-0.5601-7.5151 0.3137-11.172 0.8201-2.644 1.8826-5.2034 3.1643-7.6547 4.7188-8.5548 14.058-14.353 23.836-14.68 0.6991-0.1328 1.4026-0.1894 2.1069-0.1912zm112.03 0c1.174 0 2.3506 0.1464 3.513 0.348 7.318 1.0711 14.219 4.9698 18.822 10.778 1.8777 2.5634 3.5492 5.346 4.6606 8.3395 1.3264 4.2035 1.8639 8.654 1.5278 13.055-0.9187 7.5107-4.6914 14.726-10.674 19.427-5.5972 4.8085-13.216 6.9589-20.507 6.6408-4.1004-0.4975-8.1109-1.6307-11.79-3.5039-8.4518-4.7323-14.681-13.677-15.21-23.456-0.076-3.6343-0.3138-7.3986 1.1336-10.822 0.9949-2.7336 2.1287-5.4539 3.7644-7.8738 4.9966-7.4883 13.628-12.436 22.653-12.74 0.6991-0.1328 1.4026-0.1894 2.1069-0.1912zm353.18 65.488c-6.6803 2.4983-13.372 4.9626-20.132 7.229-18.987 6.7892-38.347 12.476-57.729 18.015-6.8878 2.057-13.91 3.6159-20.807 5.6325-47.484 12.243-95.752 21.381-144.38 27.704-9.0702 1.1114-18.118 2.4023-27.215 3.2448-7.6003 0.8515-15.201 1.7564-22.828 2.2673-24.714 2.2944-49.505 3.6432-74.3 4.5618-5.1132 0.3809-10.236 0.144-15.344 0.3053-13.623 0.7798-27.273 0.1969-40.91 0.4076-6.5652 0.2285-13.095-0.7217-19.656-0.4797-12.082-0.354-24.158-0.8289-36.227-1.4473-10.302-0.8828-20.65-1.1564-30.934-2.2498-59.001-4.8354-117.67-14.483-174.84-29.94-23.85-6.3859-47.341-14.081-70.451-22.761-7.2815-2.9206-14.629-5.6874-21.793-8.8898-23.234 67.295-39.627 138.64-47.625 210.13 6.7665 1.7527 13.302 4.3949 19.352 7.9124 9.4421 5.4269 17.643 12.723 25.36 20.341 16.693 15.783 31.033 33.798 46.53 50.715 3.1728 3.6881 6.7537 6.9823 10.146 10.469 8.6982 8.5235 18.199 16.397 29.039 22.057 4.3872 1.9897 8.7386 4.163 13.422 5.3909 3.1414 0.9321 6.3272 1.7383 9.5852 2.1461 10.114 0.717 20.207-1.1203 29.886-3.9212 24.97-7.6093 48.076-19.977 71.625-30.997 17.625-8.4294 35.528-16.501 54.377-21.816 7.6452-1.9493 15.406-3.571 23.298-4.0864 11.284-0.5557 22.604 1.4293 33.247 5.1578 10.827 3.6836 21.425 8.0529 31.665 13.153 6.0677 2.7918 12.082 5.718 17.934 8.9535 11.634 5.9154 23.119 12.122 34.663 18.217 18.212 9.3794 36.317 19.113 55.439 26.565 6.6279 2.5991 13.354 5.0105 20.314 6.57 5.4582 1.21 11.033 2.4107 16.67 1.9536 5.1043-0.1972 9.993-2.0611 14.447-4.4631 14.918-7.9454 28.192-18.526 41.462-28.9 5.8033-4.8219 11.786-9.415 17.607-14.21 16.222-13.162 32.499-26.305 49.819-38.015 11.544-7.6765 23.661-14.775 36.89-19.135 3.4327-1.0127 6.9286-1.8422 10.446-2.5368 3.7554-0.717 7.5866-0.6858 11.409-0.7037 6.1798 0.027 12.373-0.1479 18.558 0.2913 12.077 0.8783 24.168 1.6586 36.178 3.2629 29.398 3.1504 58.643 7.5287 87.847 12.077 2.3325 0.35 4.6558 0.7589 6.9825 1.1519-3.6541-88.91-20.976-178.38-49.029-261.33zm-758.84 80.574c0.2716 0 0.5435 0.016 0.8158 0.037 5.633 0.5288 11.172 2.4197 15.779 5.7403 5.0101 4.0288 9.1328 9.4019 10.746 15.707 1.1786 3.7061 0.9502 7.6587 0.8829 11.504-0.4257 3.7195-1.6669 7.3088-3.4191 10.603-1.9494 3.4416-4.7104 6.3369-7.6771 8.9136-2.3347 1.6312-4.8261 3.0829-7.4432 4.2167-5.5344 1.6715-11.58 2.7609-17.253 1.058-6.8206-1.6626-13.131-5.8078-17.047-11.674-7.1253-9.6572-7.1831-23.908 0-33.561 2.5947-4.1049 6.5648-7.0714 10.773-9.3792 3.5403-1.7926 7.4749-2.604 11.405-2.9535 0.8067-0.1513 1.6184-0.2216 2.4332-0.2115zm705.08 11.557c2.4588 0.015 4.9025 0.2879 7.2115 1.2155 2.7201 0.9949 5.4494 2.1286 7.8738 3.7643 7.2374 4.8399 12.136 13.09 12.705 21.811 0.5064 2.5365 0.1295 5.1043-0.3186 7.6183-0.8739 4.8129-3.0427 9.366-6.1303 13.153-3.1594 4.1632-7.6631 7.1074-12.458 9.0523-4.1587 1.3937-8.6042 1.9404-12.974 1.6805-8.9671-0.8828-17.418-6.0948-22.11-13.812-2.2406-3.8092-3.8987-8.0436-4.1004-12.498-0.8021-4.2663 0.1251-8.5864 1.4963-12.624 3.3924-9.9799 12.754-17.468 23.097-19.117 1.8743-0.1117 3.7958-0.2557 5.7081-0.2436zm-100.26 29.128c11.606-0.1289 22.966 7.4875 27.068 18.416 1.461 3.4103 1.8822 7.1477 2.1511 10.822-0.027 4.925-1.3891 9.7913-3.6432 14.156-2.9577 4.9609-7.1657 9.2494-12.391 11.799-3.9032 2.3707-8.5596 3.1465-13.059 3.1734-7.6227 0.4212-15.075-2.9578-20.488-8.1875-1.4922-1.5282-3.1375-2.9264-4.1592-4.8175-2.281-3.8315-4.1674-8.0667-4.4631-12.566-1.8239-11.853 4.9562-24.356 15.698-29.594 2.9622-1.685 6.3147-2.4964 9.6846-2.9087 1.1982-0.184 2.4012-0.2801 3.6019-0.2934zm-505.23 0.022c1.5919 0.022 3.1781 0.1879 4.7264 0.5889 6.4352 1.5326 12.602 4.9209 16.653 10.245 2.8412 3.2445 4.4319 7.3268 5.7494 11.374 0.7888 3.5581 0.6007 7.2419 0.5245 10.876-0.5826 5.3104-3.0295 10.253-6.2382 14.466-3.5402 4.6158-8.6758 7.7703-14.139 9.6166-3.3072 1.331-6.9462 1.1389-10.428 1.1568-4.8712-0.049-9.5538-1.8648-13.686-4.3385-1.7612-1.2144-3.3885-2.5762-5.0107-3.952-3.2221-3.1279-5.5166-7.0894-7.1254-11.248-1.5415-5.046-2.2312-10.527-0.9809-15.707 1.537-7.0267 5.8255-13.287 11.53-17.612 4.069-2.7695 8.7254-4.7416 13.664-5.1942 1.5706-0.1725 3.168-0.2934 4.76-0.271zm298.88 17.857c8.9227-0.073 17.746 4.2857 23.26 11.301 1.8822 2.5857 3.4198 5.4405 4.5178 8.4564 0.9545 2.532 1.178 5.2566 1.4872 7.932 0.4347 2.3841 0.014 4.7862-0.439 7.1344-1.4744 7.7169-6.283 14.703-12.848 18.983-7.9767 5.1132-18.53 6.1982-27.219 2.2995-9.5632-3.9257-16.715-13.292-17.625-23.631-0.9724-5.875 0.5105-11.915 3.2441-17.127 4.4275-8.0171 12.678-13.87 21.802-15.04 1.2693-0.1966 2.5463-0.2975 3.821-0.3081zm100.65 0c7.3896-0.049 14.709 2.8468 20.165 7.8417 5.1581 5.0773 8.6941 11.983 9.0481 19.283 1.3086 13.027-7.6675 26.126-20.144 29.881-6.3231 1.9852-13.404 2.062-19.544-0.6134-2.9128-0.9948-5.5924-2.6175-7.8913-4.6431-4.1945-3.2938-7.3542-7.824-9.1377-12.834-1.3624-4.1004-1.703-8.4743-1.5237-12.758 0.7932-7.0178 4.2129-13.668 9.3261-18.517 4.3962-3.8002 9.7914-6.5741 15.599-7.3046 1.3619-0.2163 2.7327-0.3263 4.1012-0.3354zm-313.25 0.012c7.3823-0.048 14.761 2.7616 20.062 7.9417 2.3079 2.2228 4.2664 4.8039 5.8573 7.5868 2.6439 5.2431 3.8358 11.244 3.2174 17.101-0.5602 4.4634-2.321 8.6708-4.5303 12.556-2.9667 4.0332-6.6149 7.6454-11.074 10.012-5.2298 2.514-11.118 3.6167-16.908 3.1327-6.9684-0.9321-13.556-4.3694-18.32-9.5319-2.2765-2.7829-4.2797-5.8301-5.6017-9.1776-2.1152-6.3277-2.5947-13.422-0.3137-19.768 3.2938-10.262 12.789-18.248 23.522-19.53 1.3542-0.208 2.7215-0.3147 4.0885-0.3235zm107.68 11.308c3.3238 0.037 6.647 0.7571 9.756 1.9032 10.544 3.8853 18.373 14.296 18.889 25.571 0.5512 4.8667-0.6051 9.7783-2.6979 14.161-2.514 5.4538-6.6901 10.24-12.063 13.018-2.0256 1.0486-4.0158 2.2582-6.2879 2.7063-3.6567 0.8738-7.4744 1.6808-11.221 0.9369-8.8954-0.9501-17.37-6.2249-21.869-14-5.8302-9.4242-5.494-22.249 0.7709-31.378 1.7791-2.514 4.0104-4.6518 6.2466-6.7535 1.9942-1.5282 4.2616-2.6757 6.5112-3.7826 2.6978-1.322 5.7047-1.7523 8.649-2.1825 1.1002-0.149 2.2082-0.2126 3.3162-0.2003zm175.41 68.151c4.43-0.01 8.8265 1.1305 13.058 2.3758 3.9346 1.4789 7.6269 3.5491 11.051 5.9959 5.4314 4.0601 9.6128 9.6568 12.409 15.814 1.9584 4.0018 2.774 8.461 3.2938 12.857 0.9725 6.8789-0.6229 13.888-3.3386 20.202-1.3713 3.4462-3.4733 6.5517-5.8663 9.366-5.1356 6.3053-12.346 10.711-20.058 13.126-5.3193 1.5371-10.93 1.5322-16.402 1.2275-11.123-1.4789-21.475-7.7702-27.892-16.979-2.9666-3.8942-4.7145-8.5328-6.1709-13.158-1.201-5.1221-1.3039-10.45-0.8872-15.666 0.3048-3.2042 1.4072-6.2561 2.4648-9.2631 4.2034-10.903 13.337-19.785 24.419-23.522 3.4417-1.4564 7.1654-1.8104 10.849-2.1734 1.0243-0.137 2.0488-0.2004 3.0712-0.2024zm-358.96 0.012c7.1474-0.081 14.229 2.2424 20.382 5.8146 3.8047 1.9807 6.8432 5.0769 9.8008 8.1287 7.7752 8.5369 11.037 20.578 9.7827 31.952-1.7119 11.333-7.9588 22.241-17.759 28.43-6.3097 4.311-13.897 6.7396-21.542 6.771-8.891 0.4481-17.885-2.3574-24.97-7.7394-6.5427-4.4769-11.262-11.261-14.116-18.584-1.3175-3.2803-1.8774-6.8029-2.3121-10.28-1.3488-9.8276 2.1058-19.727 7.5238-27.82 3.9167-5.0684 8.7792-9.5184 14.627-12.256 4.7278-2.6844 10.182-3.6481 15.519-4.2307 1.0212-0.1132 2.0438-0.1739 3.0648-0.1856zm-178.01 11.535c-1.871 19.957-3.0835 39.902-3.5935 59.751 2.5044-0.6495 5.0539-1.1646 7.6344-1.3976 11.32-0.6049 23.056 3.1905 31.19 11.252 7.5197 7.188 12.153 17.347 12.606 27.748-0.036 2.7292-0.2239 5.5076-0.6631 8.2233-1.3847 8.882-5.9247 17.235-12.642 23.218-7.9544 7.448-19.082 11.526-29.98 10.581-0.7641-0.033-1.5267-0.093-2.2862-0.1764 8.6691 60.306 23.91 114.48 44.368 162.52 11.388 5.0369 22.931 9.7221 34.594 14.077 5.8167 2.0839 11.553 4.4143 17.442 6.3054 13.318 4.4545 26.624 8.976 40.162 12.718 23.657 6.8923 47.673 12.481 71.822 17.361 26.848 5.3148 53.919 9.536 81.13 12.53 12.682 1.3489 25.369 2.7294 38.1 3.5585 19.149 1.5281 38.338 2.5944 57.55 2.8946 3.473 0.1434 6.9459 0.4664 10.432 0.4215 10.455-0.036 20.906-0.018 31.365-0.022 13.986 0.1748 27.959-0.5827 41.936-1.0398 12.817-0.7887 25.669-1.1067 38.454-2.366 22.487-1.5864 44.903-4.0605 67.229-7.1526 46.167-6.3008 91.912-15.765 136.69-28.672 41.215-11.996 81.709-26.744 120.4-45.409 2.9897-1.3906 5.9691-2.8097 8.9123-4.2985 21.23-62.464 33.408-134.58 33.772-216.35 0-6.1909-0.077-12.39-0.2135-18.593-0.4034-0.069-0.8081-0.141-1.2114-0.2072-31.468-5.0594-63.003-9.7607-94.677-13.328-7.3449-0.6677-14.654-1.7428-22.017-2.1685-10.997-0.8291-22.017-1.7122-33.05-1.4523-6.9103-0.058-13.794 1.4524-20.175 4.0605-10.692 4.1767-20.462 10.316-30.047 16.55-17.105 11.808-33.265 24.903-49.375 38.011-17.733 14.076-35.08 28.81-54.601 40.408-4.4993 2.5006-9.0522 4.9568-13.906 6.7045-5.0415 1.6446-10.348 2.4601-15.645 2.3212-7.5287 0.1792-14.896-1.609-22.129-3.4597-4.2125-1.2952-8.4923-2.3613-12.579-4.0059-7.1522-2.7381-14.304-5.5124-21.223-8.8017-9.6304-4.2124-18.893-9.1824-28.331-13.789-15.411-7.9991-30.697-16.235-46.095-24.262-9.5318-5.1669-19.382-9.7071-29.209-14.265-12.48-5.2342-25.172-10.728-38.817-11.844-6.1664-0.7842-12.346 0.1258-18.414 1.161-7.4794 1.5864-14.905 3.491-22.075 6.1618-29.25 10.607-56.416 26-84.94 38.297-9.9037 4.1139-19.852 8.246-30.249 10.975-12.126 3.5178-24.938 5.1576-37.513 3.5353-11.486-2.2271-22.505-6.6902-32.454-12.821-6.6637-3.8853-12.602-8.8369-18.441-13.829-3.966-3.3431-7.4614-7.1749-11.158-10.796-2.644-2.5947-5.2563-5.2121-7.6897-7.995-10.078-11.006-19.669-22.442-29.725-33.462-5.3014-6.0453-11.181-11.53-16.805-17.253-4.4948-4.19-9.1016-8.277-13.959-12.032-4.8846-3.3744-9.9752-6.5833-15.577-8.6223-1.4279-0.5206-2.8696-1.017-4.3231-1.4761zm751.66 74.455c3.5499 0.055 7.0735 0.9167 10.502 1.8107 2.3975 0.4795 4.5758 1.5816 6.7717 2.6482 5.8123 2.756 10.688 7.2147 14.6 12.283 2.8457 4.1811 5.082 8.8199 6.4623 13.704 0.9276 4.3917 1.5457 8.8819 1.2813 13.39-0.838 8.6445-4.2932 17.064-10.07 23.589-2.6977 3.4731-6.3721 5.9921-10.042 8.3269-12.265 7.3001-28.573 7.3444-40.829 0.01-12.297-6.7803-20.131-20.614-20.171-34.582-0.2599-4.0332 0.4796-8.0308 1.5328-11.894 1.9986-6.2873 5.1672-12.31 10.012-16.876 5.1536-5.521 12.024-9.2768 19.292-11.186 2.3213-0.5512 4.7233-0.7211 7.1029-0.981 1.1864-0.1893 2.3724-0.2607 3.5556-0.2423zm-402.46 53.686c12.92-0.1744 25.875 6.1342 33.336 16.742 5.0415 6.8116 7.6496 15.281 7.7303 23.729 0.242 7.5197-2.1418 14.946-5.9644 21.358-2.9352 4.5531-6.6776 8.5993-11.029 11.826-6.861 5.019-15.388 7.5467-23.849 7.5825-2.0838 0.094-4.1503-0.1256-6.1759-0.5693-7.9992-1.3937-15.689-5.0415-21.496-10.755-6.9998-6.5472-11.423-15.734-12.454-25.234-1.0352-8.7565 1.2098-17.724 5.7494-25.217 2.8188-4.2393 6.0678-8.2857 10.195-11.32 5.8884-4.1632 12.704-7.2507 19.955-7.8781 1.3297-0.1592 2.6665-0.2466 4.0031-0.2647zm-268.55 79.438c2.0666-0.029 4.1272 0.4364 6.1471 0.8766 4.1721 1.0039 8.2094 2.7785 11.557 5.5121 2.3751 2.1017 4.6071 4.4004 6.4041 7.0399 2.4378 3.9615 4.2704 8.4249 4.4631 13.13 0.121 2.2631 0.112 4.5441-0.022 6.834-1.3892 10.218-8.6759 19.333-18.239 23.12-4.9743 1.7567-10.423 2.6975-15.657 1.6623-7.0088-1.2458-13.632-5.1131-17.966-10.768-6.3232-7.8289-8.1295-19.095-4.3875-28.452 2.9128-7.8961 9.4691-14.273 17.374-17.114 2.6126-1.0934 5.4716-1.3173 8.259-1.6265 0.689-0.139 1.3788-0.2039 2.0677-0.2136zm679.65 14.676c4.6618-0.091 9.2811 1.283 13.472 3.2783 9.6259 4.7278 16.012 15.214 15.788 25.943 0.242 9.8455-5.136 19.467-13.404 24.728-4.7233 2.877-10.19 4.6159-15.756 4.4232-8.7654 0.2644-17.392-4.0291-22.761-10.894-4.8981-5.8571-6.9325-13.766-6.3544-21.3 0.6318-4.683 2.3752-9.1639 4.8041-13.193 3.0921-3.9122 6.6278-7.7353 11.284-9.7833 2.9801-1.6626 6.3279-2.4869 9.6979-2.8947 1.0755-0.1873 2.1535-0.2864 3.2293-0.3073zm-593.19 14.812c1.1276 0.01 2.2554 0.05 3.3813 0.1309 6.9237 0.9904 13.43 4.585 17.952 9.9178 2.0524 2.6663 4.0783 5.4672 5.2165 8.6713 1.797 4.8578 1.8956 10.11 1.5237 15.228-1.2817 6.7892-4.8844 13.184-10.289 17.549-2.5678 2.4782-5.8976 3.8497-9.1286 5.2165-5.0101 1.5999-10.464 2.16-15.613 0.8963-2.9218-0.7753-5.8391-1.6715-8.4697-3.1817-3.7733-2.3752-7.2868-5.3466-9.6888-9.1378-2.756-3.8898-4.1089-8.5723-4.7453-13.237-0.8111-5.7092 0.6273-11.459 3.1055-16.572 1.5953-2.783 3.4688-5.4443 5.7543-7.6939 4.302-3.836 9.6749-6.6325 15.375-7.5602 1.8682-0.1568 3.7469-0.2388 5.6262-0.2254zm493.95 12.981c1.2422 0.01 2.484 0.063 3.7209 0.1905 5.9109 1.1741 11.696 3.9172 15.752 8.4837 4.9294 4.5262 7.6811 11.123 8.2771 17.724 1.1607 8.5324-2.4869 17.172-8.2813 23.325-4.3514 4.0467-9.7382 7.1835-15.68 8.0797-6.2963 1.3579-12.853 0.023-18.548-2.7917-4.0915-2.2855-7.9902-5.2209-10.464-9.2631-1.6895-2.505-3.0199-5.2391-4.0192-8.0713-1.8687-6.7265-1.797-14.219 1.3444-20.551 1.4923-3.724 4.0508-6.8881 6.9951-9.5634 3.2758-3.5672 7.9094-5.4625 12.427-6.9279 0.5691-0.099 1.7163-0.2956 2.2854-0.3942 2.0503-0.1344 4.1216-0.2532 6.192-0.2402zm-406.93 8.0755c2.6673-0.024 5.3293 0.1947 7.8949 1.0153 6.2514 1.8732 12.068 5.6733 15.703 11.172 3.3162 4.4007 5.0187 9.8812 5.3951 15.34 0.7305 9.6349-4.1497 19.095-11.607 25.015-3.733 2.4109-7.73 4.6652-12.216 5.2522-6.5518 1.4251-13.4 0.058-19.297-2.9444-5.5703-3.2176-10.249-8.1294-12.839-14.045-1.9449-4.3111-2.532-9.1371-2.3079-13.82-0.13-3.9884 1.5062-7.726 3.1418-11.257 4.0377-8.2546 12.377-13.986 21.344-15.501 1.5847-0.1109 3.1869-0.2119 4.7873-0.2262zm95.518 6.3439c7.1619-0.071 14.244 2.8206 19.656 7.4789 7.5869 7.0268 11.57 18.212 8.8457 28.367-0.829 4.553-3.298 8.6491-6.166 12.221-3.3565 4.329-8.2143 7.2952-13.354 9.0474-3.3341 1.3534-7.0043 1.0895-10.509 1.1792-4.2618 0.2509-8.3537-1.3444-12.104-3.1818-6.1753-3.5223-11.378-9.0705-13.749-15.837-1.1831-2.7336-1.3934-5.6779-1.6847-8.5818-0.4795-2.6305 0.1521-5.2608 0.6316-7.8241 0.3585-2.5767 1.533-4.9208 2.6713-7.2107 2.7022-5.1267 6.8832-9.4646 12.001-12.212 3.3431-1.6805 6.9682-2.8005 10.692-3.2307 1.0218-0.1345 2.0466-0.2049 3.0697-0.215zm217.51 0.01c0.3067-0.01 0.6131-0.01 0.9193 0 11.842 0.207 23.172 8.5306 26.799 19.861 1.2727 3.0742 1.4605 6.4399 1.5411 9.7427 0.1345 2.0345-0.1208 4.0868-0.663 6.0631-1.5282 6.8878-5.5925 13.22-11.387 17.289-4.7682 3.2848-10.402 5.5796-16.286 5.3286-4.6202 0.3316-9.3253-0.4977-13.403-2.707-9.4242-4.2931-16.061-14.018-16.523-24.365-0.5019-4.096 0.327-8.1783 1.7162-12.001 1.331-3.1235 2.604-6.3905 5.1046-8.7925 1.9314-1.9494 3.6741-4.1896 6.1254-5.5296 2.4423-1.3757 4.8489-2.9893 7.6497-3.5584 1.8553-0.484 3.7243-0.9009 5.6423-1.1295 0.921-0.1184 1.8434-0.1849 2.7638-0.2016zm-100.66 0.01c6.8638-0.074 13.726 2.5128 18.946 6.9594 4.0377 3.0114 6.623 7.4794 8.5993 12.019 1.2413 3.5268 1.6491 7.2822 1.9046 11.002-0.4392 7.4659-3.3477 15.03-8.9942 20.103-3.4103 3.8853-8.2677 6.0677-13.103 7.5958-2.8725 0.6767-5.8526 0.5336-8.761 0.6008-5.1356 0.242-10.057-1.9181-14.368-4.4904-3.6926-2.6664-7.2418-5.8214-9.3436-9.9353-1.1024-2.0031-2.3028-3.9793-2.742-6.2423-1.0173-4.338-1.8917-8.9271-0.8431-13.328 0.9546-5.6017 3.6705-10.8 7.4573-15.003 4.8129-5.0101 11.351-8.434 18.31-9.0838 0.9758-0.1215 1.9569-0.1861 2.9374-0.1967zm368.42 39.996c-0.7039 0.3403-1.4078 0.6802-2.109 1.0258-5.1804 2.272-10.302 4.661-15.478 6.9286-23.827 10.361-48.206 19.422-72.903 27.484-14.479 4.5082-28.971 9.0029-43.657 12.808-59.875 16.102-121.32 25.996-183.07 31.141-10.782 0.7887-21.551 1.7881-32.351 2.1286-10.303 0.6946-20.618 1.2049-30.939 1.308-3.3341 0.027-6.6639 0.3949-9.9801 0.4174-12.691-0.036-25.378-0.018-38.06-0.022-6.0677-0.045-12.136 0.1611-18.19-0.175-6.359-0.4123-12.727-0.1793-19.077-0.6722-7.4121-0.242-14.806-0.7305-22.209-1.0531-8.4921-0.7215-17.007-1.1562-25.499-1.8374-6.1304-0.7932-12.31-0.9905-18.441-1.7344-66.36-6.5652-132.18-19.538-195.66-40.058-17.148-5.6032-34.107-11.79-50.801-18.626 6.8908 14.432 14.264 28.272 22.092 41.506 5.8071 2.0161 11.71 3.7394 17.509 5.7998 3.6836 1.3444 7.5017 2.3079 11.226 3.5627 5.651 1.9762 11.472 3.41 17.182 5.2249 7.0357 2.2048 14.188 3.9927 21.26 6.0855 7.7258 1.9046 15.339 4.2488 23.105 6.0099 28.448 7.1702 57.218 13.022 86.154 17.822 29.236 4.7995 58.697 8.1965 88.246 10.339 7.6273 0.6453 15.29 0.7039 22.926 1.2954 6.9685 0.058 13.928 0.6541 20.906 0.5959 14.156-0.085 28.322 0.036 42.488-0.045 5.0505-0.4436 10.105-0.4125 15.178-0.5559 27.623-1.2906 55.228-3.2397 82.695-6.5022 37.155-4.2079 74.121-10.074 110.8-17.378 51.889-10.464 103.28-23.469 153.78-39.368 7.1074-1.9763 13.982-4.6969 21.094-6.6821 0.3842-0.1309 0.7683-0.2626 1.1526-0.3935 7.4748-14.763 14.374-30.221 20.643-46.378zm-712.44 123.23c171.57 207.75 473.05 209.2 638.1 6.2745-41.272 6.7174-82.68 12.614-124.22 17.439-32.611 3.8988-65.307 7.0584-98.061 9.4963-26.772 2.0748-53.601 3.3699-80.431 4.302-6.8609-0.1478-13.699 0.623-20.551 0.4706-14.278-0.1882-28.56 0.2823-42.824-0.2465-43.119-1.1114-86.077-5.5704-128.79-11.459-4.3066-0.6856-8.6182-1.3266-12.943-1.8464-43.695-6.629-87.129-14.878-130.28-24.43z" fill="#660080"/>
<path opacity="0.48" d="m-3021.9 7805.5c-3.0421 684.46-833.34 693.37-880.5 15.02 0-332.74 201.1-701.6 441.75-701.6s438.74 353.85 438.74 686.59z" fill-rule="evenodd" fill="url(#a)"/>
</g>
</g>
</svg>
